<svg xmlns="http://www.w3.org/2000/svg" xmlns:xlink="http://www.w3.org/1999/xlink" fill="none" version="1.1" width="144.7919921875" height="34.487998962402344" viewBox="0 0 144.7919921875 34.487998962402344"><g><path d="M10.224,13.464Q12.204,13.464,13.482,12.132Q14.76,10.8,14.76,8.712Q14.76,6.66,13.482,5.328Q12.204,3.996,10.188,3.996L4.644,3.996L4.644,13.464L10.224,13.464ZM10.368,0Q12.996,0,15.048,1.116Q17.1,2.232,18.252,4.212Q19.404,6.192,19.404,8.712Q19.404,11.268,18.252,13.248Q17.1,15.228,15.048,16.344Q12.996,17.46,10.368,17.46L4.644,17.46L4.644,26.928L0,26.928L0,0L10.368,0ZM29.664,27.072Q27.252,27.072,25.416,25.938Q23.58,24.804,22.554,22.806Q21.528,20.808,21.528,18.252Q21.528,15.696,22.554,13.698Q23.58,11.7,25.416,10.584Q27.252,9.468,29.664,9.468Q30.96,9.468,32.256,10.044Q33.552,10.62,34.452,11.772L34.452,9.432L39.096,9.432L39.096,26.964L34.452,26.964L34.452,24.768Q33.552,25.956,32.256,26.514Q30.96,27.072,29.664,27.072ZM30.204,23.22Q31.968,23.22,33.21,21.798Q34.452,20.376,34.452,18.252Q34.452,16.128,33.21,14.706Q31.968,13.284,30.204,13.284Q28.332,13.284,27.252,14.616Q26.172,15.948,26.172,18.252Q26.172,20.556,27.252,21.888Q28.332,23.22,30.204,23.22ZM53.1,23.148Q54.972,23.148,56.052,21.816Q57.132,20.484,57.132,18.18Q57.132,15.876,56.052,14.526Q54.972,13.176,53.1,13.176Q51.912,13.176,50.922,13.842Q49.932,14.508,49.356,15.642Q48.78,16.776,48.78,18.18Q48.78,19.548,49.356,20.7Q49.932,21.852,50.922,22.5Q51.912,23.148,53.1,23.148ZM53.604,9.36Q56.016,9.36,57.87,10.476Q59.724,11.592,60.75,13.608Q61.776,15.624,61.776,18.18Q61.776,20.736,60.75,22.752Q59.724,24.768,57.87,25.884Q56.016,27,53.604,27Q52.56,27,51.156,26.442Q49.752,25.884,48.78,24.552L48.78,34.488L44.136,34.488L44.136,9.396L48.78,9.396L48.78,11.808Q49.752,10.548,51.192,9.954Q52.632,9.36,53.604,9.36ZM73.548,27Q71.064,27,69.138,25.884Q67.212,24.768,66.132,22.788Q65.052,20.808,65.052,18.252Q65.052,15.696,66.1298,13.68Q67.2075,11.664,69.129,10.548Q71.0511,9.432,73.5294,9.432Q75.9724,9.432,77.5884,10.44Q79.2051,11.448,79.9414,12.528Q80.6783,13.608,80.8577,14.148Q81.648,15.804,81.648,18.504L81.648,19.908L69.48,19.908Q69.804,21.348,70.974,22.248Q72.144,23.148,73.548,23.148Q75.132,23.148,76.05,22.554Q76.968,21.96,77.328,21.312L81.108,22.824Q80.388,24.552,78.444,25.776Q76.5,27,73.548,27ZM77.364,16.776Q77.04,15.156,76.086,14.22Q75.132,13.284,73.548,13.284Q72,13.284,70.902,14.238Q69.804,15.192,69.48,16.776L77.364,16.776ZM85.464,9.432L90.072,9.432L90.072,11.952Q90.936,10.7449,92.322,10.0704Q93.708,9.396,95.004,9.396L95.004,13.572Q93.528,13.572,92.412,14.2723Q91.296,14.9721,90.684,16.1213Q90.072,17.2699,90.072,18.4551L90.072,26.964L85.464,26.964L85.464,9.432ZM108.108,23.148Q109.98,23.148,111.06,21.816Q112.14,20.484,112.14,18.18Q112.14,15.876,111.06,14.526Q109.98,13.176,108.108,13.176Q106.92,13.176,105.93,13.842Q104.94,14.508,104.364,15.642Q103.788,16.776,103.788,18.18Q103.788,19.548,104.364,20.7Q104.94,21.852,105.93,22.5Q106.92,23.148,108.108,23.148ZM108.612,9.36Q111.024,9.36,112.878,10.476Q114.732,11.592,115.758,13.608Q116.784,15.624,116.784,18.18Q116.784,20.736,115.758,22.752Q114.732,24.768,112.878,25.884Q111.024,27,108.612,27Q107.568,27,106.164,26.442Q104.76,25.884,103.788,24.552L103.788,34.488L99.144,34.488L99.144,9.396L103.788,9.396L103.788,11.808Q104.76,10.548,106.2,9.954Q107.64,9.36,108.612,9.36ZM124.812,0.936001L124.812,26.928L120.168,26.928L120.168,0.936001L124.812,0.936001ZM136.692,27Q134.208,27,132.282,25.884Q130.356,24.768,129.276,22.788Q128.196,20.808,128.196,18.252Q128.196,15.696,129.274,13.68Q130.351,11.664,132.273,10.548Q134.195,9.432,136.673,9.432Q139.116,9.432,140.732,10.44Q142.349,11.448,143.085,12.528Q143.822,13.608,144.002,14.148Q144.792,15.804,144.792,18.504L144.792,19.908L132.624,19.908Q132.948,21.348,134.118,22.248Q135.288,23.148,136.692,23.148Q138.276,23.148,139.194,22.554Q140.112,21.96,140.472,21.312L144.252,22.824Q143.532,24.552,141.588,25.776Q139.644,27,136.692,27ZM140.508,16.776Q140.184,15.156,139.23,14.22Q138.276,13.284,136.692,13.284Q135.144,13.284,134.046,14.238Q132.948,15.192,132.624,16.776L140.508,16.776Z" fill="current" fill-opacity="1"/></g></svg>