<svg xmlns="http://www.w3.org/2000/svg" xmlns:xlink="http://www.w3.org/1999/xlink" fill="none" version="1.1" width="20" height="20" viewBox="0 0 20 20"><defs><clipPath id="master_svg0_77_06166"><rect x="0" y="20" width="20" height="20" rx="0"/></clipPath></defs><g transform="matrix(1,0,0,-1,0,40)" clip-path="url(#master_svg0_77_06166)"><g transform="matrix(0,1,-1,0,36.4658203125,10.6455078125)"><path d="M25.09745625,28.9458340625L25.09785625,28.946094062500002Q25.23475625,29.0556640625,25.41015625,29.0556640625Q25.45935625,29.0556640625,25.50765625,29.046054062499998Q25.55595625,29.0364440625,25.60145625,29.0176040625Q25.646956250000002,28.998754062499998,25.68795625,28.9713940625Q25.72885625,28.944034062500002,25.76375625,28.9092140625Q25.79855625,28.874394062500002,25.82585625,28.8334440625Q25.85325625,28.7925040625,25.87205625,28.7470040625Q25.890956250000002,28.7015040625,25.90055625,28.6532140625Q25.91015625,28.6049140625,25.91015625,28.5556640625Q25.91015625,28.4417440625,25.860856249999998,28.3390740625Q25.81145625,28.2363940625,25.72245625,28.165234062499998L19.472506250000002,23.1652300625Q19.40601625,23.1120360625,19.32565625,23.0838500625Q19.24530625,23.0556640625,19.16015625,23.0556640625Q19.07500625,23.0556640625,18.99465625,23.0838500625Q18.91430625,23.1120360625,18.847806249999998,23.1652300625L12.59805925,28.1650340625L12.59780825,28.165234062499998Q12.50885325,28.2363940625,12.45950425,28.3390740625Q12.41015625,28.4417440625,12.41015625,28.5556640625Q12.41015625,28.6049140625,12.41976325,28.6532140625Q12.429371249999999,28.7015040625,12.44821625,28.7470040625Q12.46706225,28.7925040625,12.49442125,28.8334440625Q12.52178125,28.874394062500002,12.55660325,28.9092140625Q12.59142525,28.944034062500002,12.63237125,28.9713940625Q12.67331725,28.998754062499998,12.71881425,29.0176040625Q12.76431125,29.0364440625,12.81261115,29.046054062499998Q12.86091055,29.0556640625,12.91015625,29.0556640625Q13.08554725,29.0556640625,13.22250425,28.946094062500002L19.16015625,24.1959760625L25.09745625,28.9458340625Z" fill-rule="evenodd" fill="#91929F" fill-opacity="1"/></g></g></svg>